<?xml version="1.0" encoding="utf-8"?>
<svg version="1.1" id="Layer_1" xmlns="http://www.w3.org/2000/svg" xmlns:xlink="http://www.w3.org/1999/xlink" x="0px" y="0px"
	 viewBox="0 0 2549.531 462.186" enable-background="new 0 0 2549.531 462.186" xml:space="preserve">
<g>
	<g>
		<path fill="#FCEE21" d="M396.909,121.485c-4.789-6.934-10.022-13.538-15.654-19.774c6.829,5.367,13.23,11.254,19.139,17.605
			c-35.53-51.448-94.91-85.162-162.165-85.162c-108.767,0-196.94,88.173-196.94,196.94s88.173,196.94,196.94,196.94
			c61.161,0,115.81-27.88,151.932-71.624c-6.394,5.788-13.241,11.086-20.479,15.836c6.114-5.712,11.86-11.812,17.192-18.269
			c-6.383,5.778-13.225,11.058-20.464,15.781c6.116-5.686,11.857-11.769,17.178-18.213c-6.367,5.763-13.201,11.021-20.436,15.712
			c6.112-5.656,11.843-11.718,17.15-18.144c-6.359,5.757-13.194,10.997-20.436,15.661c6.118-5.632,11.851-11.677,17.149-18.093
			c-6.353,5.75-13.188,10.976-20.438,15.611c6.126-5.608,11.86-11.636,17.152-18.044c-6.34,5.739-13.172,10.944-20.424,15.547
			c6.128-5.579,11.858-11.586,17.137-17.979c-6.325,5.725-13.151,10.907-20.402,15.476c6.127-5.547,11.85-11.531,17.115-17.908
			c-6.311,5.712-13.131,10.872-20.383,15.406c6.128-5.515,11.844-11.478,17.096-17.838c-6.302,5.704-13.123,10.845-20.383,15.345
			c6.135-5.486,11.853-11.428,17.097-17.778c-6.288,5.692-13.106,10.809-20.369,15.272c6.138-5.452,11.852-11.371,17.082-17.704
			c-6.274,5.68-13.088,10.774-20.355,15.198c6.141-5.418,11.851-11.313,17.068-17.631c-6.256,5.663-13.062,10.729-20.326,15.111
			c6.14-5.379,11.84-11.247,17.039-17.544c-6.244,5.652-13.049,10.694-20.321,15.036c6.146-5.343,11.847-11.186,17.035-17.468
			c-6.231,5.64-13.035,10.658-20.314,14.958c6.153-5.306,11.852-11.124,17.027-17.391c-6.21,5.621-13.004,10.606-20.28,14.858
			c6.15-5.262,11.839-11.048,16.994-17.291c-6.195,5.608-12.988,10.567-20.272,14.772c6.157-5.221,11.844-10.979,16.985-17.205
			c-6.177,5.591-12.966,10.519-20.252,14.674c6.16-5.176,11.842-10.902,16.965-17.106c-6.157,5.573-12.938,10.469-20.227,14.571
			c6.162-5.128,11.836-10.821,16.94-17.003c-6.138,5.556-12.915,10.417-20.207,14.464c6.165-5.078,11.834-10.737,16.92-16.896
			c-6.119,5.539-12.893,10.368-20.191,14.357c6.171-5.028,11.837-10.653,16.905-16.79c-6.093,5.516-12.857,10.304-20.154,14.23
			c6.17-4.97,11.823-10.555,16.867-16.663c-6.074,5.498-12.835,10.249-20.139,14.113c6.177-4.914,11.828-10.461,16.852-16.545
			c-6.04,5.467-12.786,10.168-20.079,13.96c6.168-4.848,11.8-10.346,16.793-16.392c-6.02,5.449-12.764,10.111-20.068,13.833
			c6.177-4.786,11.809-10.243,16.781-16.265c-5.992,5.424-12.727,10.041-20.032,13.686c6.179-4.717,11.8-10.129,16.746-16.119
			c-5.963,5.397-12.69,9.963-19.997,13.527c6.18-4.644,11.793-10.004,16.71-15.96c-5.938,5.375-12.662,9.898-19.979,13.377
			c6.19-4.57,11.799-9.883,16.692-15.809c-5.9,5.341-12.61,9.802-19.919,13.187c6.184-4.485,11.776-9.738,16.633-15.62
			c-5.872,5.315-12.578,9.725-19.897,13.013c6.194-4.4,11.781-9.598,16.61-15.445c-5.831,5.278-12.523,9.621-19.836,12.804
			c6.189-4.304,11.76-9.436,16.55-15.236c-5.797,5.247-12.482,9.532-19.802,12.601c6.196-4.206,11.759-9.274,16.515-15.033
			c-5.75,5.205-12.418,9.413-19.73,12.36c6.189-4.095,11.732-9.087,16.443-14.792c-5.706,5.165-12.362,9.298-19.673,12.114
			c6.189-3.978,11.718-8.894,16.386-14.547c-5.663,5.126-12.31,9.183-19.624,11.857c6.194-3.853,11.712-8.688,16.337-14.289
			c-5.615,5.082-12.253,9.054-19.568,11.571c6.195-3.716,11.704-8.461,16.281-14.004c-5.556,5.03-12.177,8.905-19.481,11.252
			c6.188-3.565,11.674-8.211,16.194-13.685c-5.49,4.97-12.086,8.739-19.372,10.902c6.173-3.399,11.63-7.938,16.086-13.334
			c-5.427,4.913-12.009,8.573-19.288,10.529c6.169-3.217,11.608-7.641,16.001-12.962c-5.355,4.848-11.917,8.386-19.181,10.114
			c6.157-3.016,11.572-7.312,15.894-12.546c-5.272,4.772-11.807,8.173-19.043,9.646c6.134-2.79,11.517-6.945,15.756-12.079
			c-5.182,4.691-11.69,7.943-18.893,9.13c6.109-2.537,11.457-6.537,15.607-11.562c-5.086,4.604-11.57,7.691-18.74,8.549
			c6.082-2.248,11.4-6.073,15.453-10.981c-4.971,4.5-11.419,7.398-18.53,7.883c6.033-1.918,11.305-5.546,15.243-10.315
			c-4.845,4.386-11.257,7.071-18.296,7.117c5.974-1.532,11.198-4.935,15.009-9.55c-4.314,3.905-10.035,6.284-16.313,6.284
			c-0.575,0-1.145-0.021-1.71-0.061c5.897-1.071,11.071-4.217,14.736-8.656c-3.74,3.385-8.7,5.448-14.142,5.448
			c-1.197,0-2.368-0.105-3.51-0.296c5.773-0.516,10.877-3.359,14.366-7.584c-3.166,2.866-7.365,4.612-11.972,4.612
			c-1.819,0-3.575-0.274-5.229-0.78c0.198,0.007,0.395,0.015,0.595,0.015c5.362,0,10.153-2.444,13.32-6.279
			c-2.592,2.346-6.03,3.776-9.802,3.776c-2.41,0-4.681-0.587-6.685-1.62c0.913,0.195,1.859,0.301,2.83,0.301
			c4.175,0,7.905-1.903,10.37-4.889c-2.018,1.827-4.695,2.94-7.631,2.94c-3.04,0-5.799-1.195-7.839-3.137
			c1.405,0.802,3.029,1.263,4.763,1.263c2.987,0,5.657-1.362,7.421-3.498c-1.444,1.307-3.36,2.104-5.461,2.104
			c-4.496,0-8.141-3.645-8.141-8.14c0-4.496,3.645-8.141,8.141-8.141c2.354,0,4.475,0.999,5.961,2.597
			c-1.736-2.513-4.636-4.16-7.921-4.16c-1.472,0-2.866,0.332-4.113,0.923c1.96-1.6,4.462-2.561,7.19-2.561
			c3.29,0,6.253,1.396,8.33,3.628c-2.425-3.512-6.478-5.813-11.069-5.813c-0.617,0-1.224,0.045-1.819,0.126
			c1.745-0.736,3.662-1.143,5.675-1.143c4.225,0,8.031,1.793,10.699,4.66c-2.972-4.304-7.849-7.19-13.413-7.446
			c1.234-0.27,2.515-0.417,3.83-0.417c5.161,0,9.81,2.19,13.068,5.692c-3.156-4.571-8.072-7.832-13.767-8.811
			c0.599-0.051,1.204-0.083,1.816-0.083c6.096,0,11.588,2.588,15.437,6.724c-3.313-4.797-8.266-8.372-14.048-9.922
			c6.922,0.076,13.151,3.043,17.533,7.753c-3.445-4.988-8.428-8.832-14.262-10.85c6.99,0.611,13.233,3.829,17.747,8.681
			c-3.56-5.155-8.571-9.23-14.44-11.643c7.038,1.059,13.296,4.497,17.926,9.473c-3.66-5.3-8.691-9.579-14.579-12.329
			c7.065,1.444,13.335,5.076,18.065,10.16c-3.751-5.432-8.807-9.892-14.712-12.935c7.089,1.776,13.373,5.581,18.197,10.765
			c-3.831-5.548-8.906-10.169-14.818-13.471c7.102,2.069,13.398,6.029,18.303,11.302c-3.905-5.654-8.999-10.423-14.916-13.954
			c7.111,2.329,13.42,6.431,18.401,11.785c-3.968-5.746-9.073-10.644-14.986-14.381c7.11,2.561,13.425,6.788,18.471,12.211
			c-4.024-5.827-9.136-10.845-15.039-14.765c7.103,2.77,13.421,7.11,18.525,12.595c-4.077-5.904-9.199-11.032-15.096-15.119
			c7.098,2.959,13.422,7.405,18.581,12.949c-4.125-5.974-9.254-11.2-15.142-15.439c7.09,3.131,13.419,7.672,18.627,13.27
			c-4.167-6.034-9.299-11.35-15.174-15.727c7.078,3.288,13.407,7.913,18.659,13.557c-4.209-6.095-9.349-11.496-15.215-16
			c7.07,3.432,13.405,8.14,18.7,13.831c-4.25-6.154-9.402-11.638-15.263-16.262c7.067,3.565,13.41,8.354,18.749,14.092
			c-4.283-6.202-9.437-11.755-15.284-16.486c7.052,3.687,13.397,8.542,18.769,14.316c-4.321-6.257-9.488-11.884-15.333-16.72
			c7.052,3.802,13.405,8.733,18.818,14.55c-4.345-6.292-9.507-11.977-15.332-16.902c7.03,3.906,13.379,8.888,18.817,14.732
			c-4.38-6.343-9.556-12.094-15.381-17.112c7.031,4.007,13.391,9.058,18.867,14.942c-4.407-6.382-9.587-12.189-15.402-17.289
			c7.021,4.099,13.384,9.204,18.887,15.119c-4.432-6.417-9.613-12.276-15.417-17.453c7.01,4.185,13.373,9.341,18.902,15.283
			c-4.458-6.456-9.648-12.367-15.446-17.618c7.004,4.268,13.374,9.476,18.931,15.448c-4.479-6.485-9.668-12.443-15.454-17.761
			c6.992,4.344,13.36,9.595,18.939,15.591c-4.501-6.518-9.696-12.52-15.475-17.904c6.984,4.416,13.357,9.712,18.96,15.734
			c-4.523-6.549-9.722-12.595-15.493-18.041c6.977,4.485,13.353,9.825,18.978,15.871c-4.54-6.574-9.739-12.658-15.499-18.16
			c6.965,4.549,13.34,9.924,18.984,15.99c-4.561-6.604-9.766-12.729-15.522-18.287c6.96,4.611,13.341,10.028,19.007,16.118
			c-4.575-6.624-9.776-12.782-15.518-18.389c6.946,4.667,13.323,10.114,19.003,16.219c-4.595-6.653-9.804-12.848-15.543-18.508
			c6.943,4.724,13.326,10.21,19.029,16.338c-4.61-6.675-9.821-12.902-15.551-18.608c6.934,4.776,13.318,10.293,19.036,16.438
			c-4.624-6.696-9.836-12.956-15.558-18.707c6.926,4.826,13.31,10.375,19.044,16.537c-4.638-6.716-9.851-13.004-15.565-18.797
			c6.917,4.873,13.303,10.449,19.051,16.627c-4.654-6.739-9.873-13.058-15.583-18.893c6.913,4.92,13.303,10.527,19.068,16.724
			c-4.667-6.757-9.886-13.103-15.588-18.978c6.904,4.963,13.295,10.597,19.073,16.808c-4.675-6.77-9.889-13.139-15.579-19.046
			c6.891,5.002,13.277,10.657,19.064,16.877c-4.692-6.794-9.914-13.192-15.604-19.14c6.891,5.045,13.284,10.73,19.089,16.97
			c-4.704-6.812-9.931-13.235-15.616-19.219c6.886,5.084,13.282,10.795,19.101,17.049c-4.714-6.825-9.938-13.27-15.614-19.284
			c6.876,5.119,13.271,10.85,19.099,17.114c-4.723-6.838-9.945-13.305-15.613-19.349c6.867,5.153,13.26,10.905,19.098,17.18
			c-4.735-6.857-9.962-13.347-15.627-19.424c6.865,5.189,13.26,10.965,19.112,17.255c-4.745-6.871-9.975-13.382-15.635-19.488
			c6.859,5.222,13.257,11.018,19.12,17.319c-4.756-6.886-9.988-13.417-15.642-19.552c6.854,5.254,13.254,11.07,19.128,17.383
			c-4.766-6.901-10-13.453-15.65-19.616c6.849,5.285,13.251,11.122,19.135,17.447c-4.773-6.911-10.004-13.481-15.647-19.669
			c6.841,5.313,13.241,11.166,19.133,17.499c-4.778-6.919-10.005-13.503-15.639-19.712
			C384.615,109.281,391.011,115.147,396.909,121.485z"/>
		<path fill="#FCEE21" d="M222.534,226.238c1.418,0,2.696,0.602,3.592,1.565c-1.046-1.514-2.794-2.507-4.773-2.507
			c-3.201,0-5.797,2.595-5.797,5.797c0,3.201,2.595,5.797,5.797,5.797c1.8,0,3.409-0.82,4.472-2.108
			c-0.87,0.788-2.025,1.268-3.291,1.268c-2.709,0-4.905-2.196-4.905-4.905C217.629,228.435,219.825,226.238,222.534,226.238z"/>
	</g>
	<g>
		<g id="g4170" transform="matrix(.93939 0 0 .93939 -52.451 -218.41)">
			<path id="path4164" fill="#833F00" d="M1064.574,495.216c0,0,25.72,27.47,82.28,28.55c56.01,1.08,81.73-28.6,81.73-28.6v29.98
				c0,0-9.99,28.7-81.73,28.6c-71.75-0.09-82.28-28.54-82.28-28.54V495.216L1064.574,495.216z"/>
			<path id="path4166" fill="#A04F00" d="M1229.354,491.716c0,18.13-36.96,32.84-82.5,32.84c-45.54,0-82.5-14.71-82.5-32.84
				c0-18.12,36.96-32.84,82.5-32.84C1192.394,458.876,1229.354,473.596,1229.354,491.716z"/>
			<path id="path4168" fill="#833F00" d="M1155.734,459.096l9.82,0.41l-28.68,65.73l-11.9-0.54L1155.734,459.096L1155.734,459.096z"
				/>
		</g>
		<g>
			<path id="path2172" fill="#3FFE3F" d="M1179.824,204.192l54.152,34.706l54.156,34.706c0,0,14.75,12.898,4.54,28.001
				c-10.21,15.09-27.34,7.57-27.34,7.57l-54.15-34.71l-54.152-34.706c0,0-10.092-10.982-0.502-25.945
				C1165.874,199.231,1179.824,204.193,1179.824,204.192L1179.824,204.192z"/>
			<path id="path2174" fill="#E3E214" d="M1233.976,238.898l54.156,34.706c0,0,14.75,12.898,4.54,28.001
				c-10.21,15.09-27.34,7.57-27.34,7.57l-54.15-34.71L1233.976,238.898L1233.976,238.898z"/>
		</g>
		<g>
			<path id="rect2163" fill="#009FA2" d="M1975.609,233.803h71.287h71.291c0,0,21.47,3.213,20.97,23.412
				c-0.49,20.19-20.97,23.41-20.97,23.41h-71.291h-71.287c0,0-15.984-4.21-15.984-23.91
				C1959.625,237.516,1975.609,233.803,1975.609,233.803z"/>
			<path id="path2166" fill="#810082" d="M2046.896,233.803h71.291c0,0,21.47,3.213,20.97,23.412
				c-0.49,20.19-20.97,23.41-20.97,23.41h-71.291C2046.896,280.625,2046.896,233.803,2046.896,233.803z"/>
		</g>
		<g>
			<path id="path2168" fill="#FF8280" d="M2411.577,213.909l44.907,28.133l44.902,28.14c0,0,12.27,10.51,3.98,23.03
				c-8.28,12.52-22.46,6.47-22.46,6.47l-44.903-28.14l-44.907-28.14c0,0-8.406-8.96-0.631-21.37
				C2400.043,209.938,2411.577,213.909,2411.577,213.909z"/>
			<path id="path2170" fill="#C06200" d="M2456.484,242.042l44.902,28.14c0,0,12.27,10.51,3.98,23.03
				c-8.28,12.52-22.46,6.47-22.46,6.47l-44.903-28.14L2456.484,242.042z"/>
		</g>
		<g>
			<path id="path2176" fill="#A2009D" d="M767.913,274.25l50.35-32.892l50.35-32.893c0,0,16.66-7.641,25.62,6.855
				c8.97,14.491-4.01,26.214-4.01,26.214l-50.35,32.892l-50.35,32.888c0,0-13.24,4.4-22.32-9.507
				C758.343,284.247,767.913,274.25,767.913,274.25L767.913,274.25z"/>
			<path id="path2178" fill="#A0A0A0" d="M818.263,241.358l50.35-32.893c0,0,16.66-7.641,25.62,6.855
				c8.97,14.491-4.01,26.214-4.01,26.214l-50.35,32.892L818.263,241.358L818.263,241.358z"/>
		</g>
		<g id="g4186" transform="matrix(1.2127 0 0 1.2127 -466.89 -22.202)">
			<path id="path4180" fill="#E2E000" d="M1844.389,222.645c0,0,18,19.22,57.57,19.97c39.19,0.76,57.19-20.01,57.19-20.01v20.98
				c0,0-6.99,20.08-57.19,20.01c-50.19-0.06-57.57-19.97-57.57-19.97S1844.389,222.645,1844.389,222.645z"/>
			<path id="path4182" fill="#FFFE3F" d="M1959.689,220.195c0,12.69-25.86,22.98-57.73,22.98c-31.86,0-57.72-10.29-57.72-22.98
				c0-12.679,25.86-22.973,57.72-22.973C1933.829,197.222,1959.689,207.516,1959.689,220.195z"/>
			<path id="path4184" fill="#E2E000" d="M1908.179,197.375l6.87,0.287l-20.07,45.993l-8.33-0.38
				C1886.649,243.275,1908.179,197.375,1908.179,197.375z"/>
		</g>
		<g id="g4175" transform="translate(-132.43 -184.19)">
			<path id="path4153" fill="#BFBFBF" d="M1478.902,431.314c0,0,23.37,24.97,74.79,25.95c50.93,0.99,74.31-26,74.31-26v27.26
				c0,0-9.09,26.09-74.31,26s-74.79-25.95-74.79-25.95V431.314L1478.902,431.314z"/>
			<path id="path4155" fill="#E1E1E1" d="M1628.702,428.134c0,16.48-33.6,29.86-75,29.86s-75-13.38-75-29.86
				c0-16.48,33.6-29.85,75-29.85S1628.702,411.654,1628.702,428.134L1628.702,428.134z"/>
			<path id="path4157" fill="#BFBFBF" d="M1561.772,398.484l8.92,0.37l-26.07,59.76l-10.82-0.5L1561.772,398.484L1561.772,398.484z"
				/>
		</g>
		<g id="g4175_1_" transform="translate(-132.43 -184.19)">
			<path id="path4153_1_" fill="#BFBFBF" d="M2321.796,431.314c0,0,23.37,24.97,74.79,25.95c50.93,0.99,74.31-26,74.31-26v27.26
				c0,0-9.09,26.09-74.31,26s-74.79-25.95-74.79-25.95V431.314L2321.796,431.314z"/>
			<path id="path4155_1_" fill="#E1E1E1" d="M2471.596,428.134c0,16.48-33.6,29.86-75,29.86s-75-13.38-75-29.86
				c0-16.48,33.6-29.85,75-29.85S2471.596,411.654,2471.596,428.134L2471.596,428.134z"/>
			<path id="path4157_1_" fill="#BFBFBF" d="M2404.666,398.484l8.92,0.37l-26.07,59.76l-10.82-0.5L2404.666,398.484
				L2404.666,398.484z"/>
		</g>
		<g>
			<path id="path2180" fill="#4040FF" d="M1555.8,257.357l67.72-22.25l67.73-22.251c0,0,21.41-3.651,27.23,15.693
				c5.83,19.338-12.62,28.788-12.62,28.788l-67.73,22.25l-67.72,22.25c0,0-16.5,0.99-22.65-17.72
				C1541.77,265.877,1555.8,257.357,1555.8,257.357L1555.8,257.357z"/>
			<path id="path2182" fill="#810082" d="M1623.52,235.107l67.73-22.251c0,0,21.41-3.651,27.23,15.693
				c5.83,19.338-12.62,28.788-12.62,28.788l-67.73,22.25L1623.52,235.107L1623.52,235.107z"/>
		</g>
		<g id="g4159" transform="translate(-155.74 -195.38)">
			<path id="rect2206" fill="#3FFE3F" d="M705.253,441.553c0,0,25.594,27.328,81.857,28.395
				c55.723,1.081,81.303-28.452,81.303-28.452v29.831c0,0-9.939,28.551-81.303,28.452c-71.378-0.1-81.857-28.395-81.857-28.395
				V441.553z"/>
			<path id="path2204" fill="#7FFF83" d="M869.181,438.069c0,18.029-36.77,32.675-82.071,32.675s-82.071-14.645-82.071-32.675
				s36.77-32.66,82.071-32.66S869.181,420.04,869.181,438.069z"/>
			<path id="rect3181" fill="#3FFE3F" d="M795.955,405.622l9.754,0.398l-28.523,65.392l-11.844-0.526L795.955,405.622z"/>
		</g>
	</g>
</g>
</svg>
